<svg id="svg" version="1.1" xmlns="http://www.w3.org/2000/svg" xmlns:xlink="http://www.w3.org/1999/xlink" width="400" height="288" viewBox="0, 0, 400,288"><g id="svgg"><path id="path0" d="M0.000 144.092 L 0.000 288.184 200.000 288.184 L 400.000 288.184 400.000 144.092 L 400.000 0.000 200.000 0.000 L 0.000 0.000 0.000 144.092 M10.646 6.187 C 11.633 6.698,12.132 7.926,11.761 8.930 C 11.585 9.405,11.600 9.678,11.805 9.747 C 12.877 10.104,13.747 12.399,13.278 13.632 C 12.815 14.850,11.472 15.842,9.452 16.460 C 6.147 17.471,6.126 17.431,6.296 10.448 L 6.395 6.342 7.304 6.079 C 8.673 5.682,9.736 5.717,10.646 6.187 M51.147 8.025 C 51.029 8.604,50.900 10.566,50.860 12.384 C 50.782 16.014,50.420 16.826,49.357 15.763 C 48.529 14.935,48.852 7.673,49.757 6.768 C 50.548 5.977,51.408 6.754,51.147 8.025 M85.158 8.070 C 84.980 9.126,85.010 9.184,85.785 9.273 C 87.102 9.424,87.135 10.878,85.824 11.004 C 84.439 11.137,84.226 13.315,85.499 14.331 C 86.416 15.062,86.204 15.916,85.063 16.086 C 83.868 16.264,82.997 14.947,82.997 12.962 C 82.997 11.417,82.935 11.220,82.493 11.357 C 81.803 11.572,81.190 11.135,81.312 10.515 C 81.412 10.006,81.824 9.691,82.781 9.396 C 83.105 9.296,83.285 8.950,83.285 8.431 C 83.285 7.176,84.044 6.263,84.765 6.649 C 85.252 6.909,85.315 7.140,85.158 8.070 M66.667 7.829 C 67.176 8.636,66.418 9.250,65.160 9.049 L 64.104 8.880 64.113 12.259 C 64.120 15.212,64.055 15.677,63.600 15.960 C 62.844 16.428,62.168 15.446,62.334 14.121 C 62.403 13.566,62.380 12.269,62.282 11.239 L 62.104 9.366 61.073 9.456 C 59.915 9.557,59.240 9.028,59.660 8.348 C 60.253 7.387,66.114 6.953,66.667 7.829 M8.357 8.501 C 8.357 9.653,8.407 9.680,9.376 9.045 C 10.188 8.513,10.297 7.923,9.631 7.668 C 8.645 7.290,8.357 7.478,8.357 8.501 M19.270 9.438 C 19.418 9.715,19.632 10.560,19.745 11.315 C 19.859 12.069,20.205 13.010,20.515 13.404 C 21.528 14.692,20.522 15.940,19.337 14.867 C 18.872 14.446,18.778 14.467,18.155 15.130 C 15.771 17.668,13.168 13.443,15.352 10.579 C 16.429 9.168,18.762 8.489,19.270 9.438 M39.445 9.323 C 39.623 9.536,39.899 10.405,40.060 11.253 C 40.221 12.101,40.610 13.069,40.926 13.404 C 42.018 14.567,41.168 15.734,39.772 14.987 C 39.292 14.730,39.032 14.782,38.426 15.259 C 36.022 17.150,33.832 14.235,35.312 11.115 C 36.058 9.545,38.684 8.405,39.445 9.323 M46.830 10.082 C 46.830 10.691,46.662 10.824,45.701 10.981 C 44.414 11.190,43.804 11.849,43.804 13.030 C 43.804 14.251,44.937 14.693,45.976 13.876 C 47.455 12.713,48.471 14.002,47.095 15.296 C 44.285 17.936,40.522 14.457,42.513 11.060 C 43.687 9.056,46.830 8.344,46.830 10.082 M76.824 10.105 L 77.935 10.987 78.473 10.249 C 79.154 9.313,80.403 9.225,80.403 10.113 C 80.403 10.445,80.143 11.047,79.826 11.451 L 79.248 12.185 80.272 13.434 C 81.994 15.536,80.882 16.748,79.046 14.769 L 78.044 13.689 77.567 14.400 C 75.473 17.518,73.820 16.845,75.822 13.689 L 76.715 12.280 75.819 11.544 C 74.906 10.793,74.629 9.679,75.288 9.413 C 75.486 9.333,75.663 9.257,75.681 9.245 C 75.699 9.232,76.213 9.619,76.824 10.105 M26.501 9.929 C 27.124 10.679,26.740 11.375,25.647 11.479 C 24.143 11.622,23.919 11.952,23.919 14.021 C 23.919 15.977,23.431 16.657,22.628 15.818 C 21.320 14.451,21.968 9.092,23.338 9.939 C 23.497 10.037,23.855 9.985,24.133 9.823 C 24.873 9.392,26.102 9.447,26.501 9.929 M32.056 10.275 C 32.958 10.730,33.254 11.588,33.272 13.797 C 33.295 16.544,31.794 16.673,31.533 13.947 C 31.206 10.524,29.806 10.532,29.627 13.957 C 29.523 15.943,28.827 16.728,28.072 15.710 C 27.677 15.179,27.708 11.160,28.116 9.860 C 28.260 9.400,30.869 9.675,32.056 10.275 M57.742 10.270 C 59.169 11.697,58.275 13.344,55.864 13.729 C 54.625 13.927,54.464 14.233,55.349 14.707 C 55.821 14.959,56.178 14.903,57.074 14.436 C 59.130 13.364,59.887 14.757,57.955 16.056 C 55.547 17.675,52.738 16.150,52.738 13.226 C 52.738 10.144,55.804 8.332,57.742 10.270 M72.440 10.107 C 74.090 11.406,73.258 13.254,70.821 13.700 C 70.217 13.810,69.741 14.065,69.741 14.278 C 69.741 14.944,70.819 15.035,71.958 14.463 C 73.749 13.564,74.510 14.483,73.083 15.824 C 71.601 17.216,68.968 16.803,67.946 15.019 C 66.161 11.900,69.742 7.985,72.440 10.107 M8.718 11.242 C 8.150 11.476,7.637 14.986,8.170 14.986 C 8.673 14.986,10.362 14.211,10.879 13.743 C 12.423 12.346,10.747 10.407,8.718 11.242 M16.947 11.455 C 16.054 12.495,16.026 13.833,16.897 13.833 C 17.361 13.833,17.867 12.696,17.867 11.653 C 17.867 10.825,17.547 10.756,16.947 11.455 M37.230 11.535 C 36.499 12.321,36.412 13.319,37.032 13.833 C 37.613 14.316,38.515 12.325,38.118 11.435 C 37.866 10.870,37.848 10.872,37.230 11.535 M55.170 11.662 C 54.688 12.027,54.677 12.087,55.092 12.095 C 55.770 12.108,56.484 11.801,56.484 11.497 C 56.484 11.103,55.795 11.190,55.170 11.662 M69.868 11.662 C 69.320 12.076,69.322 12.086,69.933 12.095 C 70.803 12.107,71.497 11.805,71.307 11.497 C 71.072 11.117,70.502 11.183,69.868 11.662 M391.354 146.974 L 391.354 267.723 196.254 267.723 L 1.153 267.723 1.153 146.974 L 1.153 26.225 196.254 26.225 L 391.354 26.225 391.354 146.974 M30.597 270.506 C 31.362 271.199,31.407 284.512,30.647 285.352 C 30.049 286.013,2.728 286.186,2.075 285.533 C 1.583 285.041,1.583 270.867,2.075 270.375 C 2.685 269.764,29.916 269.890,30.597 270.506 M61.614 270.375 C 62.106 270.867,62.106 285.041,61.614 285.533 C 61.116 286.031,34.561 286.031,34.063 285.533 C 33.571 285.041,33.571 270.867,34.063 270.375 C 34.561 269.877,61.116 269.877,61.614 270.375 " stroke="none" fill="#934faf" fill-rule="evenodd"></path><path id="path1" d="M7.493 6.311 C 6.688 6.536,6.734 6.193,6.636 12.598 C 6.573 16.699,6.620 16.833,8.030 16.574 C 12.454 15.760,14.505 12.618,12.087 10.359 C 11.335 9.657,11.253 9.447,11.526 8.935 C 12.484 7.146,10.085 5.586,7.493 6.311 M49.698 7.226 C 49.247 7.957,48.867 14.339,49.228 15.132 C 50.048 16.931,50.477 15.923,50.580 11.960 C 50.633 9.899,50.719 7.959,50.771 7.648 C 50.877 7.008,50.037 6.678,49.698 7.226 M83.589 7.997 C 83.424 8.591,83.288 9.224,83.287 9.402 C 83.286 9.580,82.886 9.806,82.399 9.903 C 81.288 10.126,81.310 11.093,82.426 11.099 C 83.101 11.103,83.149 11.211,83.285 13.031 C 83.441 15.116,83.611 15.424,84.759 15.707 C 85.828 15.971,86.100 15.144,85.149 14.521 C 83.782 13.625,84.307 10.813,85.879 10.611 C 86.977 10.470,86.790 9.672,85.633 9.562 L 84.667 9.469 84.858 8.193 C 85.121 6.441,84.066 6.278,83.589 7.997 M10.201 7.870 C 10.576 8.487,9.214 9.895,8.396 9.737 C 7.946 9.649,7.860 8.071,8.269 7.404 C 8.517 7.000,9.871 7.327,10.201 7.870 M62.968 7.656 C 62.810 7.700,62.064 7.819,61.311 7.920 C 59.344 8.185,59.287 9.222,61.239 9.222 L 62.536 9.222 62.593 10.879 C 62.624 11.790,62.656 13.206,62.665 14.024 C 62.682 15.669,62.858 16.009,63.557 15.741 C 63.961 15.586,64.013 15.101,63.930 12.247 C 63.824 8.621,63.719 8.821,65.657 8.929 C 66.510 8.976,66.606 8.907,66.522 8.309 C 66.432 7.676,64.315 7.286,62.968 7.656 M16.970 9.706 C 14.881 10.566,13.955 13.783,15.457 14.965 C 16.450 15.746,17.061 15.718,18.100 14.844 C 18.844 14.218,18.999 14.181,19.310 14.556 C 19.744 15.078,20.654 15.120,20.826 14.625 C 20.895 14.427,20.659 13.913,20.301 13.483 C 19.943 13.052,19.559 12.144,19.446 11.465 C 19.062 9.146,18.794 8.956,16.970 9.706 M37.608 9.570 C 35.054 10.466,34.035 13.909,35.984 15.061 C 37.150 15.750,37.659 15.692,38.509 14.774 C 39.171 14.060,39.265 14.034,39.519 14.486 C 39.856 15.089,40.878 15.147,41.098 14.576 C 41.184 14.350,40.986 13.896,40.656 13.567 C 40.327 13.238,40.058 12.797,40.058 12.588 C 40.058 11.701,39.142 9.224,38.822 9.245 C 38.630 9.257,38.084 9.404,37.608 9.570 M43.538 10.127 C 42.035 11.528,41.694 13.646,42.770 14.897 C 44.099 16.442,48.007 15.646,47.361 13.963 C 47.153 13.422,46.565 13.428,46.110 13.977 C 45.679 14.495,44.345 14.546,43.862 14.063 C 42.822 13.024,44.064 10.663,45.650 10.663 C 46.729 10.663,46.998 10.485,46.779 9.914 C 46.525 9.252,44.323 9.396,43.538 10.127 M24.210 10.079 C 23.973 10.228,23.501 10.281,23.161 10.195 C 22.253 9.967,22.138 10.389,22.361 13.135 C 22.504 14.898,22.683 15.658,22.981 15.773 C 23.618 16.017,23.846 15.389,23.694 13.807 C 23.523 12.029,24.133 11.172,25.478 11.300 C 26.142 11.363,26.378 11.253,26.461 10.841 C 26.643 9.936,25.206 9.449,24.210 10.079 M28.158 12.413 C 27.971 15.300,28.086 15.922,28.783 15.789 C 29.140 15.722,29.272 15.294,29.339 13.984 C 29.438 12.054,29.735 11.527,30.721 11.527 C 31.470 11.527,31.641 11.950,31.768 14.119 C 31.848 15.468,32.655 16.125,33.031 15.146 C 33.833 13.057,32.149 9.891,30.388 10.177 C 29.847 10.265,29.331 10.216,29.239 10.067 C 28.678 9.160,28.318 9.942,28.158 12.413 M54.867 10.081 C 51.928 11.268,52.810 16.429,55.951 16.425 C 57.089 16.424,58.790 15.472,58.790 14.837 C 58.790 14.188,57.983 13.982,57.410 14.484 C 56.507 15.276,55.697 15.351,55.047 14.702 C 54.289 13.943,54.461 13.666,55.829 13.445 C 58.136 13.074,58.940 11.565,57.454 10.396 C 56.655 9.767,55.878 9.672,54.867 10.081 M69.560 10.082 C 66.653 11.256,67.616 16.429,70.741 16.425 C 71.913 16.424,73.487 15.436,73.487 14.702 C 73.487 13.969,73.004 13.968,71.902 14.697 C 70.856 15.390,70.497 15.412,69.905 14.821 C 69.279 14.194,69.339 13.545,70.023 13.545 C 71.548 13.545,72.911 12.654,72.911 11.657 C 72.911 10.120,71.319 9.372,69.560 10.082 M75.043 10.133 C 74.920 10.332,75.263 10.810,75.891 11.314 C 77.163 12.334,77.171 12.429,76.102 13.778 C 75.098 15.045,74.880 15.934,75.541 16.070 C 75.840 16.132,76.309 15.694,76.838 14.856 C 77.833 13.280,78.030 13.255,79.211 14.553 C 80.220 15.662,80.620 15.795,80.883 15.109 C 80.994 14.822,80.675 14.266,80.010 13.584 C 78.790 12.335,78.780 12.283,79.539 11.318 C 79.856 10.915,80.115 10.408,80.115 10.192 C 80.115 9.543,79.169 9.747,78.541 10.532 L 77.954 11.266 76.961 10.532 C 75.874 9.728,75.360 9.621,75.043 10.133 M11.311 11.572 C 12.331 12.777,11.776 13.788,9.558 14.770 C 7.964 15.475,7.726 15.241,7.837 13.089 C 7.962 10.691,9.863 9.860,11.311 11.572 M18.098 11.860 C 18.213 13.202,17.291 14.418,16.517 13.948 C 15.714 13.459,15.742 12.565,16.592 11.555 C 17.532 10.437,17.984 10.528,18.098 11.860 M38.561 11.429 C 38.725 12.572,37.845 14.174,37.110 14.070 C 36.617 14.000,36.434 13.760,36.369 13.097 C 36.204 11.406,38.326 9.791,38.561 11.429 M56.625 11.998 C 55.935 12.502,54.374 12.528,54.538 12.032 C 54.751 11.386,55.953 10.955,56.590 11.296 C 57.149 11.595,57.150 11.614,56.625 11.998 M71.453 11.363 C 71.866 11.860,70.936 12.485,70.003 12.338 C 69.211 12.213,69.238 11.741,70.061 11.315 C 70.939 10.861,71.040 10.865,71.453 11.363 M1.441 146.974 L 1.441 267.723 196.398 267.723 L 391.354 267.723 391.354 146.974 L 391.354 26.225 196.398 26.225 L 1.441 26.225 1.441 146.974 M3.458 30.115 C 3.458 30.353,3.329 30.548,3.170 30.548 C 3.012 30.548,2.882 30.353,2.882 30.115 C 2.882 29.878,3.012 29.683,3.170 29.683 C 3.329 29.683,3.458 29.878,3.458 30.115 M6.052 30.115 C 6.052 30.353,5.922 30.548,5.764 30.548 C 5.605 30.548,5.476 30.353,5.476 30.115 C 5.476 29.878,5.605 29.683,5.764 29.683 C 5.922 29.683,6.052 29.878,6.052 30.115 M8.646 30.115 C 8.646 30.353,8.516 30.548,8.357 30.548 C 8.199 30.548,8.069 30.353,8.069 30.115 C 8.069 29.878,8.199 29.683,8.357 29.683 C 8.516 29.683,8.646 29.878,8.646 30.115 M390.523 265.948 C 389.753 267.029,389.084 267.566,388.827 267.309 C 388.635 267.117,390.559 265.130,390.938 265.130 C 391.030 265.130,390.843 265.498,390.523 265.948 M390.784 266.996 C 390.583 267.238,390.285 267.435,390.122 267.435 C 389.958 267.435,390.060 267.175,390.347 266.857 C 390.943 266.198,391.341 266.325,390.784 266.996 M9.819 276.552 C 9.083 277.488,9.062 278.152,9.749 278.774 C 10.831 279.753,12.392 278.984,12.392 277.472 C 12.392 275.897,10.786 275.323,9.819 276.552 M41.601 276.228 C 41.419 276.703,41.959 277.522,42.453 277.522 C 42.623 277.522,42.521 277.346,42.227 277.131 C 41.900 276.892,41.764 276.557,41.875 276.266 C 41.975 276.006,41.992 275.793,41.913 275.793 C 41.833 275.793,41.693 275.989,41.601 276.228 M11.758 276.427 C 12.607 277.275,11.974 278.963,10.807 278.963 C 9.570 278.963,9.156 277.867,9.959 276.721 C 10.452 276.017,11.222 275.890,11.758 276.427 M21.542 277.432 C 21.167 277.530,21.048 277.836,21.077 278.623 C 21.106 279.416,21.149 279.501,21.247 278.963 C 21.319 278.566,21.581 278.015,21.829 277.738 C 22.077 277.460,22.227 277.248,22.163 277.267 C 22.099 277.285,21.819 277.360,21.542 277.432 M52.507 277.579 C 51.308 278.778,53.018 280.485,54.467 279.535 C 54.772 279.335,54.616 279.306,53.933 279.437 C 52.844 279.646,52.055 278.983,52.964 278.623 C 53.425 278.440,53.424 278.425,52.954 278.406 C 52.366 278.383,52.306 278.068,52.795 277.579 C 52.986 277.389,53.076 277.233,52.997 277.233 C 52.918 277.233,52.697 277.389,52.507 277.579 M13.879 279.467 C 13.904 280.537,13.977 280.991,14.041 280.476 C 14.124 279.806,14.306 279.539,14.680 279.539 C 14.968 279.539,15.375 279.312,15.585 279.035 C 15.909 278.606,15.906 278.584,15.562 278.890 C 14.765 279.602,14.043 279.338,14.183 278.386 C 14.252 277.911,14.202 277.522,14.071 277.522 C 13.940 277.522,13.854 278.397,13.879 279.467 M22.744 278.603 C 22.881 279.597,22.902 279.617,22.997 278.855 C 23.053 278.400,22.986 277.914,22.847 277.775 C 22.702 277.630,22.658 277.983,22.744 278.603 M43.209 278.060 C 43.751 279.076,42.996 279.789,41.904 279.291 C 41.482 279.098,41.071 279.006,40.992 279.085 C 40.913 279.164,41.189 279.384,41.605 279.574 C 43.134 280.271,44.552 278.785,43.325 277.773 C 42.888 277.413,42.877 277.438,43.209 278.060 M48.729 277.868 C 48.662 279.129,49.750 280.288,50.078 279.305 C 50.147 279.098,50.017 279.029,49.751 279.132 C 49.434 279.253,49.231 279.030,49.032 278.339 C 48.880 277.810,48.743 277.598,48.729 277.868 M17.291 278.461 C 17.291 279.559,18.910 280.417,19.420 279.591 C 19.500 279.461,19.199 279.409,18.751 279.475 C 17.929 279.595,17.254 279.056,17.799 278.714 C 17.985 278.597,17.946 278.395,17.691 278.159 C 17.358 277.849,17.291 277.900,17.291 278.461 M46.451 278.984 C 46.151 279.465,45.995 279.515,45.661 279.237 C 45.354 278.983,45.245 278.979,45.245 279.224 C 45.245 279.826,46.173 279.948,46.574 279.399 C 46.906 278.946,47.020 278.930,47.444 279.280 C 47.893 279.651,47.899 279.632,47.527 279.035 C 47.030 278.236,46.921 278.231,46.451 278.984 " stroke="none" fill="#fbfbfb" fill-rule="evenodd"></path><path id="path2" d="M2.075 270.375 C 1.583 270.867,1.583 285.041,2.075 285.533 C 2.728 286.186,30.049 286.013,30.647 285.352 C 31.407 284.512,31.362 271.199,30.597 270.506 C 29.916 269.890,2.685 269.764,2.075 270.375 M34.063 270.375 C 33.571 270.867,33.571 285.041,34.063 285.533 C 34.561 286.031,61.116 286.031,61.614 285.533 C 62.106 285.041,62.106 270.867,61.614 270.375 C 61.116 269.877,34.561 269.877,34.063 270.375 M43.444 275.720 C 43.519 275.947,43.287 276.081,42.819 276.081 C 41.876 276.081,41.818 276.862,42.735 277.211 C 43.839 277.630,44.227 278.293,43.853 279.115 C 43.470 279.954,41.969 280.105,41.049 279.396 C 40.530 278.996,40.583 278.970,41.776 279.036 C 43.380 279.124,43.751 278.385,42.386 277.819 C 41.201 277.329,40.945 276.416,41.797 275.726 C 42.511 275.148,43.252 275.145,43.444 275.720 M12.153 276.269 C 13.338 277.342,12.458 279.251,10.779 279.251 C 9.516 279.251,8.889 278.395,9.244 277.157 C 9.650 275.739,11.084 275.302,12.153 276.269 M10.042 277.071 C 9.615 278.010,9.913 278.674,10.763 278.674 C 11.782 278.674,12.269 277.970,11.864 277.081 C 11.442 276.154,10.463 276.148,10.042 277.071 M19.545 277.741 C 19.620 278.267,19.468 278.426,18.752 278.569 C 18.266 278.667,17.867 278.864,17.867 279.008 C 17.867 279.465,18.665 279.595,19.319 279.245 C 19.829 278.972,19.926 278.982,19.822 279.295 C 19.375 280.642,17.003 279.978,17.003 278.506 C 17.003 277.013,19.342 276.309,19.545 277.741 M22.983 277.596 C 23.410 277.933,23.471 279.827,23.055 279.827 C 22.896 279.827,22.765 279.535,22.762 279.179 C 22.756 278.321,22.334 277.687,21.934 277.934 C 21.758 278.043,21.614 278.513,21.614 278.980 C 21.614 279.557,21.470 279.827,21.163 279.827 C 20.800 279.827,20.675 277.509,21.013 277.057 C 21.107 276.933,22.693 277.366,22.983 277.596 M47.142 277.450 C 47.224 277.727,47.482 278.325,47.715 278.779 C 48.131 279.592,48.127 279.601,47.412 279.422 C 46.970 279.311,46.686 279.362,46.686 279.553 C 46.686 280.331,45.101 279.682,45.007 278.865 C 44.843 277.429,46.759 276.159,47.142 277.450 M51.297 277.092 C 51.297 278.437,49.644 280.191,49.060 279.467 C 48.628 278.931,48.318 277.233,48.652 277.233 C 48.808 277.233,49.086 277.655,49.270 278.170 L 49.606 279.107 50.170 278.026 C 50.645 277.115,51.297 276.576,51.297 277.092 M54.415 277.739 C 54.476 278.167,54.328 278.447,53.983 278.559 C 53.694 278.653,53.264 278.791,53.026 278.865 C 52.662 278.980,52.673 279.046,53.094 279.282 C 53.426 279.469,53.790 279.459,54.175 279.253 C 54.848 278.892,54.957 279.301,54.327 279.824 C 53.099 280.843,51.386 279.029,52.283 277.660 C 52.917 276.692,54.273 276.742,54.415 277.739 M16.081 278.273 C 16.155 279.033,16.038 279.222,15.306 279.526 C 14.720 279.768,14.383 280.153,14.258 280.722 C 13.942 282.163,13.545 281.325,13.545 279.217 L 13.545 277.200 14.769 277.289 C 15.906 277.371,16.000 277.442,16.081 278.273 M45.809 278.121 C 45.564 278.580,45.563 278.819,45.807 279.063 C 46.153 279.409,46.672 278.889,46.681 278.187 C 46.690 277.545,46.140 277.503,45.809 278.121 M52.882 277.810 C 52.784 277.968,52.898 278.098,53.136 278.098 C 53.374 278.098,53.648 277.968,53.746 277.810 C 53.844 277.651,53.730 277.522,53.492 277.522 C 53.254 277.522,52.980 277.651,52.882 277.810 M14.601 278.002 C 14.320 278.283,14.367 279.251,14.662 279.251 C 14.801 279.251,15.072 279.062,15.263 278.831 C 15.775 278.214,15.160 277.443,14.601 278.002 " stroke="none" fill="#2a9981" fill-rule="evenodd"></path><path id="path3" d="M9.350 6.049 C 10.057 6.185,10.758 6.580,11.205 7.096 C 11.636 7.593,11.845 7.714,11.726 7.397 C 11.617 7.107,11.527 6.818,11.527 6.756 C 11.527 6.455,9.732 5.768,9.020 5.797 C 8.365 5.824,8.427 5.871,9.350 6.049 M49.753 6.849 C 49.667 6.989,49.882 7.094,50.230 7.082 C 50.709 7.066,50.842 7.202,50.771 7.637 C 50.719 7.954,50.633 9.885,50.579 11.927 C 50.508 14.625,50.376 15.708,50.097 15.886 C 49.834 16.052,49.821 16.131,50.055 16.134 C 50.662 16.142,50.779 15.583,50.892 12.154 C 50.953 10.304,51.037 8.336,51.078 7.781 C 51.152 6.787,50.204 6.120,49.753 6.849 M84.524 6.813 C 84.959 6.940,85.013 7.163,84.857 8.202 L 84.671 9.441 85.687 9.559 C 86.246 9.624,86.640 9.575,86.562 9.450 C 86.485 9.324,86.102 9.222,85.713 9.222 C 85.060 9.222,85.010 9.126,85.081 8.008 C 85.147 6.978,85.071 6.784,84.582 6.728 C 84.113 6.674,84.102 6.690,84.524 6.813 M8.259 7.421 C 7.798 8.172,7.954 9.649,8.501 9.717 C 8.818 9.756,8.916 9.715,8.718 9.625 C 7.948 9.277,8.287 7.542,9.150 7.411 L 9.942 7.291 9.167 7.248 C 8.740 7.224,8.332 7.302,8.259 7.421 M11.413 9.105 C 11.300 9.398,11.550 9.858,12.102 10.373 C 14.390 12.511,12.811 15.306,8.688 16.415 C 7.999 16.601,7.493 16.811,7.564 16.882 C 8.281 17.599,12.732 15.067,13.278 13.632 C 13.753 12.382,12.741 9.798,11.776 9.798 C 11.618 9.798,11.571 9.539,11.671 9.222 C 11.888 8.539,11.668 8.440,11.413 9.105 M18.693 9.472 C 18.989 9.767,19.322 10.613,19.432 11.350 C 19.557 12.178,19.913 12.992,20.364 13.478 L 21.094 14.265 20.522 13.476 C 20.208 13.042,19.859 12.069,19.745 11.315 C 19.497 9.657,19.142 8.934,18.578 8.934 C 18.248 8.934,18.274 9.052,18.693 9.472 M38.850 9.182 C 39.058 9.314,39.417 9.993,39.649 10.691 L 40.069 11.960 39.933 10.853 C 39.790 9.688,39.341 8.931,38.798 8.938 C 38.597 8.941,38.617 9.034,38.850 9.182 M45.385 9.426 C 46.017 9.496,46.643 9.705,46.776 9.892 C 46.942 10.125,46.982 10.095,46.902 9.798 C 46.822 9.504,46.379 9.355,45.511 9.332 C 44.246 9.299,44.245 9.300,45.385 9.426 M25.607 9.840 C 26.423 10.075,26.553 10.227,26.441 10.814 C 26.368 11.197,26.419 11.441,26.555 11.358 C 27.373 10.852,26.495 9.496,25.375 9.536 C 24.725 9.559,24.751 9.594,25.607 9.840 M28.980 9.933 C 29.711 10.487,30.139 10.492,29.683 9.942 C 29.486 9.705,29.121 9.510,28.872 9.510 C 28.510 9.510,28.532 9.594,28.980 9.933 M56.299 9.806 C 59.052 10.631,58.750 12.976,55.829 13.445 C 55.231 13.542,54.681 13.719,54.607 13.840 C 54.360 14.238,56.902 13.536,57.637 13.002 C 59.103 11.937,58.103 9.473,56.229 9.535 L 55.476 9.560 56.299 9.806 M71.108 9.791 C 74.085 10.498,73.204 13.545,70.023 13.545 C 69.670 13.545,69.454 13.737,69.457 14.049 C 69.460 14.366,69.540 14.433,69.673 14.229 C 69.789 14.051,70.339 13.811,70.893 13.697 C 73.958 13.063,73.987 9.420,70.927 9.540 C 70.243 9.566,70.260 9.590,71.108 9.791 M75.937 9.946 C 76.412 10.173,77.125 10.579,77.522 10.848 C 77.918 11.117,77.788 10.931,77.233 10.435 C 76.679 9.939,75.965 9.533,75.648 9.533 C 75.206 9.533,75.273 9.629,75.937 9.946 M79.611 9.709 C 80.273 9.882,80.249 10.415,79.539 11.318 C 78.781 12.281,78.779 12.273,80.115 13.722 C 81.537 15.265,81.623 15.083,80.258 13.418 L 79.248 12.185 79.826 11.451 C 80.628 10.431,80.593 9.500,79.755 9.544 C 79.267 9.569,79.231 9.610,79.611 9.709 M31.317 10.218 C 32.876 10.897,33.856 14.615,32.699 15.461 C 32.406 15.675,32.305 15.850,32.474 15.850 C 33.420 15.850,33.714 13.066,32.972 11.133 C 32.772 10.613,31.409 9.791,30.778 9.810 C 30.572 9.816,30.815 10.000,31.317 10.218 M64.037 12.738 C 63.987 15.056,63.891 15.583,63.473 15.827 C 63.195 15.989,63.115 16.125,63.293 16.130 C 64.064 16.150,64.286 15.289,64.192 12.637 L 64.097 9.942 64.037 12.738 M45.757 10.584 C 43.661 10.804,42.467 14.460,44.510 14.400 C 44.677 14.396,44.586 14.260,44.308 14.098 C 43.026 13.351,44.167 10.951,45.804 10.951 C 46.270 10.951,46.732 10.821,46.830 10.663 C 46.928 10.504,46.968 10.396,46.919 10.423 C 46.870 10.450,46.347 10.522,45.757 10.584 M85.879 10.582 C 84.738 10.787,84.619 11.136,85.735 11.006 C 86.290 10.941,86.744 10.772,86.744 10.631 C 86.744 10.490,86.711 10.392,86.671 10.414 C 86.632 10.435,86.275 10.511,85.879 10.582 M8.646 11.036 C 7.766 11.481,7.525 14.972,8.357 15.200 C 8.693 15.291,8.706 15.259,8.414 15.053 C 7.508 14.415,8.105 11.471,9.222 11.069 C 9.777 10.870,10.036 10.699,9.798 10.689 C 9.561 10.679,9.042 10.835,8.646 11.036 M16.596 11.549 C 15.614 12.717,15.721 14.121,16.793 14.121 C 16.931 14.121,16.836 13.913,16.581 13.658 C 16.000 13.077,16.232 12.179,17.186 11.311 C 17.579 10.955,17.774 10.663,17.621 10.663 C 17.468 10.663,17.007 11.062,16.596 11.549 M36.906 11.425 C 36.202 12.320,36.191 13.853,36.888 14.063 C 37.236 14.168,37.250 14.119,36.960 13.811 C 36.425 13.245,36.522 12.295,37.187 11.582 C 37.830 10.892,38.201 10.791,38.427 11.246 C 38.508 11.409,38.540 11.376,38.499 11.174 C 38.362 10.496,37.535 10.626,36.906 11.425 M24.090 11.786 C 23.735 12.179,23.627 12.687,23.707 13.587 L 23.819 14.841 23.869 13.489 C 23.908 12.453,24.069 12.031,24.560 11.688 C 24.912 11.441,25.062 11.239,24.893 11.239 C 24.723 11.239,24.362 11.485,24.090 11.786 M54.813 11.585 C 54.238 12.159,54.418 12.394,55.403 12.358 L 56.340 12.324 55.476 12.132 C 54.659 11.952,54.643 11.922,55.187 11.599 C 55.504 11.411,55.628 11.253,55.461 11.248 C 55.295 11.243,55.003 11.395,54.813 11.585 M69.455 11.668 C 69.036 12.174,69.635 12.534,70.516 12.306 C 70.836 12.223,70.703 12.154,70.173 12.128 C 69.349 12.087,69.335 12.066,69.868 11.662 C 70.175 11.430,70.289 11.239,70.119 11.239 C 69.950 11.239,69.651 11.432,69.455 11.668 M29.741 11.873 C 29.550 12.063,29.395 12.965,29.395 13.876 C 29.395 15.150,29.278 15.601,28.890 15.827 C 28.613 15.989,28.522 16.125,28.689 16.130 C 29.347 16.149,29.683 15.373,29.683 13.833 C 29.683 12.945,29.839 12.063,30.029 11.873 C 30.219 11.683,30.310 11.527,30.231 11.527 C 30.151 11.527,29.931 11.683,29.741 11.873 M84.486 12.669 C 84.446 13.743,84.563 14.055,85.194 14.558 C 85.931 15.146,85.937 15.175,85.415 15.696 C 85.076 16.035,85.029 16.181,85.287 16.095 C 86.237 15.779,86.343 15.005,85.530 14.334 C 84.973 13.874,84.718 13.358,84.642 12.536 L 84.535 11.383 84.486 12.669 M40.076 12.464 C 40.066 12.741,40.317 13.228,40.634 13.545 C 41.342 14.253,41.358 14.574,40.706 14.993 C 40.235 15.296,40.237 15.306,40.730 15.151 C 41.020 15.060,41.312 14.986,41.378 14.986 C 41.705 14.986,41.440 13.855,41.034 13.518 C 40.779 13.306,40.463 12.869,40.332 12.546 C 40.133 12.056,40.091 12.042,40.076 12.464 M47.343 13.916 C 47.610 14.612,46.690 15.519,45.389 15.843 L 44.236 16.129 45.358 16.001 C 47.038 15.809,48.462 14.252,47.501 13.658 C 47.277 13.520,47.224 13.605,47.343 13.916 M77.112 14.449 C 76.818 14.946,76.320 15.611,76.005 15.926 C 75.690 16.241,75.609 16.440,75.825 16.368 C 76.301 16.209,78.258 13.545,77.899 13.545 C 77.760 13.545,77.405 13.952,77.112 14.449 M58.429 14.162 C 59.264 15.002,58.260 16.050,56.243 16.443 C 55.207 16.645,55.204 16.649,56.081 16.682 C 57.876 16.748,59.958 14.518,58.589 13.997 C 58.172 13.838,58.141 13.871,58.429 14.162 M18.573 14.433 C 18.468 14.604,17.974 14.992,17.476 15.296 C 16.971 15.604,16.770 15.848,17.021 15.849 C 17.269 15.850,17.844 15.461,18.300 14.986 C 18.755 14.510,19.047 14.121,18.947 14.121 C 18.847 14.121,18.679 14.261,18.573 14.433 M38.709 14.585 C 38.611 14.841,38.128 15.225,37.637 15.439 C 37.112 15.667,36.950 15.832,37.243 15.839 C 37.518 15.845,38.167 15.465,38.684 14.994 C 39.202 14.523,39.459 14.134,39.256 14.129 C 39.053 14.125,38.807 14.330,38.709 14.585 M73.520 14.619 C 73.481 15.379,72.408 16.148,70.941 16.466 C 69.922 16.688,69.930 16.692,71.153 16.583 C 72.622 16.452,73.918 15.398,73.693 14.518 C 73.575 14.061,73.549 14.076,73.520 14.619 M6.407 15.274 C 6.407 15.829,6.466 16.055,6.539 15.778 C 6.611 15.501,6.611 15.047,6.539 14.769 C 6.466 14.492,6.407 14.719,6.407 15.274 M1.295 146.974 C 1.295 213.465,1.329 240.666,1.369 207.421 C 1.409 174.175,1.409 119.773,1.369 86.527 C 1.329 53.282,1.295 80.483,1.295 146.974 M389.498 266.265 C 389.036 266.747,388.750 267.233,388.863 267.345 C 389.140 267.622,390.587 266.141,390.448 265.723 C 390.384 265.532,389.978 265.764,389.498 266.265 M390.347 266.857 C 390.060 267.175,389.958 267.435,390.122 267.435 C 390.484 267.435,391.203 266.611,391.010 266.418 C 390.933 266.341,390.635 266.539,390.347 266.857 M50.563 278.125 C 50.309 278.615,50.153 279.067,50.215 279.130 C 50.278 279.192,50.545 278.791,50.808 278.238 C 51.401 276.996,51.196 276.901,50.563 278.125 M14.232 277.937 C 14.144 278.166,14.123 278.587,14.185 278.874 C 14.256 279.199,14.354 279.043,14.448 278.458 C 14.605 277.477,14.503 277.231,14.232 277.937 M15.767 278.099 C 15.850 278.417,15.741 278.904,15.524 279.180 C 15.167 279.636,15.177 279.646,15.634 279.287 C 16.172 278.866,16.310 277.950,15.877 277.682 C 15.733 277.593,15.684 277.781,15.767 278.099 M45.341 278.264 C 45.241 278.523,45.394 278.927,45.694 279.201 C 46.190 279.654,46.199 279.652,45.845 279.182 C 45.638 278.907,45.544 278.486,45.636 278.246 C 45.728 278.006,45.738 277.810,45.659 277.810 C 45.580 277.810,45.437 278.014,45.341 278.264 M23.122 278.963 C 23.122 279.517,23.181 279.744,23.253 279.467 C 23.326 279.189,23.326 278.736,23.253 278.458 C 23.181 278.181,23.122 278.408,23.122 278.963 " stroke="none" fill="#d9b0ca" fill-rule="evenodd"></path><path id="path4" d="M6.449 9.510 C 6.449 11.333,6.496 12.079,6.553 11.167 C 6.610 10.256,6.610 8.764,6.553 7.853 C 6.496 6.942,6.449 7.687,6.449 9.510 M83.734 6.981 C 83.487 7.333,83.296 7.884,83.310 8.205 C 83.329 8.642,83.396 8.585,83.578 7.979 C 83.712 7.533,83.976 6.982,84.165 6.754 C 84.354 6.526,84.435 6.340,84.346 6.340 C 84.256 6.340,83.981 6.628,83.734 6.981 M64.914 7.403 C 65.191 7.476,65.645 7.476,65.922 7.403 C 66.200 7.331,65.973 7.271,65.418 7.271 C 64.863 7.271,64.636 7.331,64.914 7.403 M9.791 7.683 C 10.283 7.926,10.124 8.547,9.438 9.066 C 8.792 9.554,8.793 9.554,9.510 9.138 C 10.268 8.698,10.490 7.737,9.863 7.610 C 9.661 7.570,9.629 7.602,9.791 7.683 M59.670 8.327 C 59.456 8.728,59.485 8.962,59.782 9.208 C 60.111 9.482,60.155 9.429,60.022 8.921 C 59.925 8.549,60.021 8.196,60.261 8.044 C 60.533 7.872,60.550 7.788,60.313 7.785 C 60.120 7.783,59.831 8.027,59.670 8.327 M49.064 10.231 C 49.067 10.865,49.126 11.090,49.195 10.732 C 49.264 10.373,49.261 9.854,49.189 9.579 C 49.117 9.303,49.061 9.597,49.064 10.231 M62.276 11.311 C 62.383 12.460,62.411 13.790,62.339 14.265 C 62.256 14.808,62.383 15.344,62.681 15.706 C 62.942 16.023,63.048 16.088,62.918 15.850 C 62.787 15.612,62.673 14.769,62.665 13.977 C 62.629 10.647,62.523 9.222,62.309 9.222 C 62.184 9.222,62.169 10.162,62.276 11.311 M15.392 10.527 C 14.966 11.086,14.700 11.626,14.801 11.727 C 14.903 11.829,14.986 11.774,14.986 11.606 C 14.986 11.438,15.362 10.897,15.822 10.405 C 16.282 9.913,16.547 9.510,16.413 9.510 C 16.278 9.510,15.819 9.968,15.392 10.527 M28.112 9.870 C 27.685 11.240,27.680 15.179,28.104 15.710 C 28.553 16.271,28.556 16.270,28.262 15.660 C 28.067 15.257,28.040 14.060,28.183 12.273 C 28.393 9.673,28.374 9.030,28.112 9.870 M35.865 10.273 C 35.477 10.692,35.159 11.168,35.159 11.329 C 35.159 11.491,35.191 11.569,35.231 11.502 C 35.270 11.435,35.683 10.960,36.149 10.445 C 36.615 9.931,36.900 9.510,36.784 9.510 C 36.667 9.510,36.254 9.853,35.865 10.273 M42.645 10.863 C 41.380 12.858,41.922 15.850,43.548 15.850 C 43.664 15.850,43.364 15.455,42.881 14.972 C 41.809 13.899,41.870 12.445,43.063 10.642 C 43.475 10.020,43.743 9.510,43.658 9.510 C 43.573 9.510,43.117 10.119,42.645 10.863 M81.568 9.929 C 81.377 10.159,81.281 10.580,81.355 10.865 C 81.463 11.281,81.496 11.258,81.523 10.749 C 81.541 10.400,81.783 9.983,82.061 9.821 C 82.338 9.660,82.419 9.524,82.240 9.519 C 82.061 9.514,81.759 9.698,81.568 9.929 M68.332 10.814 C 66.946 12.393,67.272 15.070,68.980 16.137 C 69.413 16.407,69.328 16.217,68.693 15.494 C 67.435 14.061,67.407 12.391,68.616 10.879 C 69.708 9.512,69.514 9.468,68.332 10.814 M22.098 12.680 C 22.202 14.618,22.375 15.544,22.691 15.850 C 23.086 16.234,23.107 16.234,22.879 15.850 C 22.738 15.612,22.471 14.186,22.287 12.680 L 21.951 9.942 22.098 12.680 M53.334 10.923 C 52.388 12.251,52.511 14.315,53.609 15.573 L 54.481 16.571 53.753 15.450 C 52.825 14.020,52.770 12.120,53.622 10.923 C 53.950 10.463,54.153 10.086,54.074 10.086 C 53.995 10.086,53.662 10.463,53.334 10.923 M17.911 11.576 C 17.887 11.999,17.793 12.582,17.702 12.873 C 17.545 13.372,17.554 13.373,17.864 12.889 C 18.045 12.607,18.139 12.024,18.073 11.592 L 17.954 10.807 17.911 11.576 M38.156 11.993 C 38.156 12.862,38.201 12.944,38.417 12.460 C 38.573 12.110,38.573 11.687,38.417 11.408 C 38.223 11.061,38.156 11.212,38.156 11.993 M83.042 12.864 C 83.008 14.194,83.122 14.770,83.501 15.183 C 83.779 15.486,83.876 15.546,83.718 15.316 C 83.559 15.087,83.353 14.043,83.259 12.997 L 83.088 11.095 83.042 12.864 M31.317 12.536 C 31.535 13.961,31.702 14.203,31.696 13.088 C 31.693 12.626,31.567 12.053,31.416 11.816 C 31.228 11.521,31.197 11.751,31.317 12.536 M76.339 11.877 C 76.650 12.291,76.620 12.503,76.155 13.174 C 75.402 14.261,75.159 14.697,75.305 14.697 C 75.952 14.697,76.953 12.281,76.484 11.853 C 76.004 11.416,75.994 11.418,76.339 11.877 M11.527 12.541 C 11.527 12.835,11.236 13.392,10.879 13.780 L 10.231 14.485 10.890 14.087 C 11.546 13.690,12.046 12.526,11.706 12.186 C 11.608 12.088,11.527 12.248,11.527 12.541 M14.458 13.134 C 14.418 14.088,14.558 14.440,15.202 15.007 L 15.994 15.706 15.366 14.986 C 15.021 14.589,14.686 13.746,14.622 13.112 L 14.506 11.960 14.458 13.134 M48.786 13.401 C 48.788 14.193,48.844 14.483,48.910 14.045 C 48.976 13.607,48.974 12.959,48.906 12.604 C 48.838 12.250,48.783 12.608,48.786 13.401 M34.870 14.403 C 34.870 14.763,36.595 15.950,36.808 15.737 C 36.905 15.641,36.851 15.562,36.690 15.562 C 36.528 15.562,36.052 15.244,35.633 14.855 C 35.213 14.467,34.870 14.263,34.870 14.403 M41.782 275.738 C 40.986 276.383,41.189 277.288,42.238 277.766 C 43.145 278.179,43.132 278.180,43.132 277.705 C 43.132 277.482,42.926 277.366,42.655 277.437 C 42.056 277.594,41.378 276.810,41.604 276.221 C 41.723 275.912,42.015 275.825,42.573 275.934 C 43.203 276.057,43.250 276.036,42.795 275.836 L 42.219 275.582 42.795 275.433 C 43.210 275.325,43.240 275.274,42.899 275.250 C 42.640 275.231,42.137 275.451,41.782 275.738 M9.675 276.245 C 9.426 276.494,9.222 276.840,9.222 277.014 C 9.222 277.187,9.256 277.275,9.297 277.209 C 9.338 277.143,9.618 276.798,9.918 276.441 C 10.539 275.703,10.360 275.560,9.675 276.245 M11.167 276.378 C 11.524 276.521,11.816 276.794,11.816 276.984 C 11.816 277.174,11.899 277.246,12.001 277.144 C 12.282 276.863,11.521 276.078,10.988 276.099 C 10.670 276.111,10.728 276.201,11.167 276.378 M18.228 277.263 C 18.505 277.421,18.732 277.673,18.732 277.824 C 18.732 277.975,18.505 278.100,18.228 278.102 C 17.797 278.106,17.786 278.147,18.156 278.386 C 18.835 278.826,19.020 278.730,19.020 277.937 C 19.020 277.428,19.132 277.264,19.380 277.407 C 19.579 277.521,19.644 277.507,19.525 277.376 C 19.406 277.245,18.952 277.102,18.516 277.057 C 17.863 276.991,17.812 277.027,18.228 277.263 M45.434 277.472 C 44.948 278.009,44.781 279.396,45.173 279.639 C 45.292 279.712,45.389 279.312,45.389 278.749 C 45.389 277.611,46.172 277.187,46.677 278.051 C 47.054 278.697,47.052 278.207,46.676 277.503 C 46.304 276.808,46.040 276.802,45.434 277.472 M50.144 278.098 C 49.821 278.732,49.620 279.251,49.699 279.251 C 49.777 279.251,50.057 278.829,50.321 278.314 C 50.585 277.799,50.945 277.282,51.121 277.166 C 51.346 277.017,51.336 276.953,51.087 276.950 C 50.892 276.947,50.468 277.464,50.144 278.098 M52.464 277.361 C 52.255 277.612,52.291 277.714,52.586 277.714 C 52.814 277.714,52.934 277.606,52.852 277.474 C 52.651 277.148,53.072 277.178,53.602 277.526 C 53.959 277.760,53.913 277.843,53.335 278.001 L 52.636 278.192 53.290 278.434 C 54.152 278.752,54.543 278.490,54.190 277.830 C 54.036 277.544,53.960 277.260,54.020 277.199 C 54.081 277.139,53.821 277.071,53.443 277.048 C 53.066 277.026,52.625 277.166,52.464 277.361 M13.545 279.234 C 13.545 280.334,13.642 281.295,13.761 281.369 C 13.880 281.443,13.934 280.607,13.881 279.512 C 13.800 277.820,13.856 277.522,14.258 277.522 C 14.519 277.522,14.652 277.650,14.555 277.806 C 14.457 277.966,14.564 278.021,14.797 277.931 C 15.395 277.702,15.679 278.322,15.242 278.903 C 14.895 279.366,14.904 279.366,15.409 278.905 C 15.877 278.477,15.893 278.352,15.537 277.914 C 15.175 277.469,15.187 277.435,15.649 277.608 C 15.961 277.725,16.098 277.689,15.992 277.518 C 15.895 277.362,15.305 277.233,14.680 277.233 L 13.545 277.233 13.545 279.234 M17.178 277.689 C 16.709 278.912,17.577 280.304,18.639 280.030 C 19.083 279.915,19.069 279.889,18.551 279.861 C 17.657 279.812,17.191 279.103,17.392 278.097 C 17.578 277.168,17.462 276.948,17.178 277.689 M21.710 277.715 C 21.710 277.912,21.832 277.997,21.982 277.904 C 22.132 277.812,22.364 277.913,22.498 278.129 C 22.676 278.418,22.729 278.368,22.697 277.940 C 22.650 277.318,21.710 277.103,21.710 277.715 M11.657 278.358 C 11.506 278.501,11.124 278.681,10.807 278.757 C 10.260 278.889,10.262 278.897,10.844 278.929 C 11.181 278.947,11.618 278.768,11.816 278.530 C 12.207 278.059,12.097 277.940,11.657 278.358 M20.816 278.963 C 20.816 279.517,20.875 279.744,20.948 279.467 C 21.020 279.189,21.020 278.736,20.948 278.458 C 20.875 278.181,20.816 278.408,20.816 278.963 " stroke="none" fill="#a8b1e6" fill-rule="evenodd"></path></g></svg>
